<?xml version="1.0" encoding="UTF-8"?>
<svg version="1.1" xmlns="http://www.w3.org/2000/svg" width="130" height="70">
<path d="M0 0 C6.30513088 -0.80818565 12.76872438 -1.63481104 19 0 C22.91110162 3.42287727 24.75872643 7.22878948 26.94140625 11.88232422 C28.81001379 15.62040121 31.18445582 19.02806838 33.5 22.5 C34.42531223 23.92700319 35.34850336 25.35538408 36.26953125 26.78515625 C38.07049093 29.56974168 39.8811019 32.34768389 41.69921875 35.12109375 C42.52864949 36.39322678 43.35807675 37.66536209 44.1875 38.9375 C44.57421875 39.52273437 44.9609375 40.10796875 45.359375 40.7109375 C48 44.77418704 48 44.77418704 48 47 C32.9991246 49.20601109 32.9991246 49.20601109 28.32714844 45.76953125 C25.26401694 42.30183521 23.20618529 38.22102754 21.12109375 34.11669922 C19.3324734 30.73966558 17.16344368 27.64454994 15 24.5 C14.17780741 23.2681799 13.35750308 22.03509743 12.5390625 20.80078125 C10.75472464 18.12287498 8.95541011 15.45565009 7.1484375 12.79296875 C6.684375 12.10589844 6.2203125 11.41882812 5.7421875 10.7109375 C4.84749138 9.38678724 3.94918911 8.06506467 3.046875 6.74609375 C0 2.2249244 0 2.2249244 0 0 Z " fill="#000000" transform="translate(41,5)"/>
<path d="M0 0 C6.02167649 2.0072255 9.47773246 9.4700792 12.25634766 14.92480469 C13.42145232 18.17608166 12.82769626 20.33413975 11.625 23.5 C10.325625 25.7275 10.325625 25.7275 9 28 C12.63 27.67 16.26 27.34 20 27 C21.67519118 29.43201863 23.34025134 31.86997798 25 34.3125 C25.47695312 35.00279297 25.95390625 35.69308594 26.4453125 36.40429688 C26.89648438 37.07138672 27.34765625 37.73847656 27.8125 38.42578125 C28.23144531 39.03848877 28.65039062 39.65119629 29.08203125 40.2824707 C30 42 30 42 30 45 C26.31251691 45.02925502 22.62506408 45.04688418 18.9375 45.0625 C17.89916016 45.07087891 16.86082031 45.07925781 15.79101562 45.08789062 C12.85878712 45.09719929 9.93157728 45.05779757 7 45 C5.71480469 44.98710938 4.42960937 44.97421875 3.10546875 44.9609375 C-1.54293002 43.52256505 -3.19409824 40.62542849 -5.625 36.5625 C-6.06577881 35.82821777 -6.50655762 35.09393555 -6.96069336 34.33740234 C-8.65544339 31.28544028 -9.93111447 28.8504232 -10.21484375 25.34765625 C-9.43419242 22.68783226 -8.27930073 20.4643372 -7 18 C-6.05209539 15.64402233 -5.15800221 13.27074304 -4.26342773 10.89404297 C-2.88596616 7.24509597 -1.44101691 3.62425622 0 0 Z " fill="#000000" transform="translate(39,8)"/>
<path d="M0 0 C1.32 0 2.64 0 4 0 C4 3.96 4 7.92 4 12 C-23 12 -50 12 -77 12 C-77 11.34 -77 10.68 -77 10 C-77.99 10 -78.98 10 -80 10 C-80 10.66 -80 11.32 -80 12 C-81.65 12 -83.3 12 -85 12 C-84.5247412 10.35303396 -84.04468109 8.70745272 -83.5625 7.0625 C-83.29566406 6.14597656 -83.02882813 5.22945312 -82.75390625 4.28515625 C-82 2 -82 2 -81 1 C-79.33382885 0.95936168 -77.66611905 0.957279 -76 1 C-75.01 2.98 -74.02 4.96 -73 7 C-72.67 5.68 -72.34 4.36 -72 3 C-70.98679687 2.90912109 -70.98679687 2.90912109 -69.953125 2.81640625 C-69.06109375 2.73261719 -68.1690625 2.64882813 -67.25 2.5625 C-66.36828125 2.48128906 -65.4865625 2.40007813 -64.578125 2.31640625 C-62.30649548 2.03761535 -60.20148177 1.61209423 -58 1 C-58 1.66 -58 2.32 -58 3 C-57.30132812 3 -56.60265625 3 -55.8828125 3 C-46 3 -46 3 -43.6015625 3.03173828 C-40.40107888 3.07321436 -37.20064638 3.09918834 -34 3.125 C-32.88109375 3.14175781 -31.7621875 3.15851562 -30.609375 3.17578125 C-29.00835937 3.18544922 -29.00835937 3.18544922 -27.375 3.1953125 C-25.90160156 3.21102295 -25.90160156 3.21102295 -24.3984375 3.22705078 C-21.81461597 3.23949488 -21.81461597 3.23949488 -20 1 C-19.01 1 -18.02 1 -17 1 C-17 1.66 -17 2.32 -17 3 C-11.39 3 -5.78 3 0 3 C0 2.01 0 1.02 0 0 Z M-58 6 C-58 6.66 -58 7.32 -58 8 C-57.34 8 -56.68 8 -56 8 C-56 7.34 -56 6.68 -56 6 C-56.66 6 -57.32 6 -58 6 Z M-52 6 C-51 8 -51 8 -51 8 Z M-22 6 C-21 8 -21 8 -21 8 Z M-17 6 C-16 8 -16 8 -16 8 Z M-1 6 C0 8 0 8 0 8 Z " fill="#000000" transform="translate(86,54)"/>
<path d="M0 0 C18.91794049 -1.47441982 18.91794049 -1.47441982 23.73046875 1.93359375 C25.65896995 4.90967585 27 7.41193734 27 11 C27.66 11 28.32 11 29 11 C28.39936061 15.76849077 27.0166965 19.9246869 25.125 24.3125 C24.74021484 25.26092773 24.74021484 25.26092773 24.34765625 26.22851562 C23.65214317 27.85895207 22.83308235 29.43538016 22 31 C21.01 31.33 20.02 31.66 19 32 C12.39810109 22.48943838 12.39810109 22.48943838 13.0625 18 C14 15 14 15 15 13 C13.2365625 13.3403125 13.2365625 13.3403125 11.4375 13.6875 C9.24609375 13.72265625 9.24609375 13.72265625 7 13 C3.96681631 9.54727315 0 4.77479909 0 0 Z " fill="#00AFFF" transform="translate(62,5)"/>
<path d="M0 0 C6.0546875 -0.1953125 6.0546875 -0.1953125 8 0 C8.66 0.66 9.32 1.32 10 2 C13.41656024 2.16677282 13.41656024 2.16677282 17 2 C21 2 21 2 24.4375 2.5625 C27.74921933 2.96920237 29.80761212 2.70941953 33 2 C33.99 2.33 34.98 2.66 36 3 C36.09765625 9.15234375 36.09765625 9.15234375 36 11 C35 12 35 12 32.125 12.125 C29 12 29 12 26 11 C25.67 11.33 25.34 11.66 25 12 C22.125 12.375 22.125 12.375 19 12 C17.125 9.5 17.125 9.5 16 7 C15.67 8.65 15.34 10.3 15 12 C13.35 12 11.7 12 10 12 C9.67 10.68 9.34 9.36 9 8 C7.35 8 5.7 8 4 8 C4 9.32 4 10.64 4 12 C2.68 12 1.36 12 0 12 C0 8.04 0 4.08 0 0 Z M21 6 C21 6.66 21 7.32 21 8 C21.66 7.67 22.32 7.34 23 7 C22.34 6.67 21.68 6.34 21 6 Z " fill="#3FC3FF" transform="translate(92,54)"/>
</svg>
