<?xml version="1.0" standalone="no"?>
<!DOCTYPE svg PUBLIC "-//W3C//DTD SVG 20010904//EN"
 "http://www.w3.org/TR/2001/REC-SVG-20010904/DTD/svg10.dtd">
<svg version="1.0" xmlns="http://www.w3.org/2000/svg"
 width="989.000000pt" height="948.000000pt" viewBox="0 0 989.000000 948.000000"
 preserveAspectRatio="xMidYMid meet">

<g transform="translate(0.000000,948.000000) scale(0.100000,-0.100000)"
fill="#000000" stroke="none">
<path d="M0 4740 l0 -4740 1178 4 c647 2 1188 4 1202 4 14 1 88 -1 166 -4
l141 -5 32 72 c24 54 31 83 29 118 -3 45 -4 46 -46 56 -24 6 -47 17 -52 25
-10 15 -5 94 6 111 8 13 63 -22 70 -44 10 -31 75 -64 139 -71 54 -6 64 -4 94
18 19 14 37 23 41 21 11 -7 20 22 14 40 -4 8 -10 15 -15 15 -37 0 -51 149 -24
253 8 32 15 84 15 117 0 53 4 63 39 107 74 92 83 97 180 103 85 6 90 7 157 53
168 115 144 203 -84 307 -24 11 -68 44 -98 74 -78 78 -93 129 -53 180 20 25
26 26 97 25 53 -1 86 3 106 14 16 9 46 19 68 22 35 6 78 45 78 72 0 20 38 43
84 52 26 5 53 14 59 20 6 6 11 35 12 66 0 45 5 59 28 83 16 16 40 35 55 43 15
7 34 22 43 33 12 14 30 19 75 20 33 1 66 5 74 10 8 4 6 0 -5 -9 -19 -17 -17
-17 37 -11 31 3 64 9 74 13 12 4 15 3 10 -5 -11 -18 5 -15 42 8 36 22 46 25
37 10 -10 -16 6 -12 29 7 12 10 8 3 -9 -16 -27 -30 -27 -32 -7 -21 13 6 26 9
30 6 3 -3 1 -6 -3 -6 -5 0 -1 -6 9 -13 16 -12 14 -17 -30 -67 -27 -30 -37 -46
-24 -35 51 43 67 51 41 23 l-23 -27 23 6 c24 6 24 6 5 -15 -13 -15 -15 -22 -6
-22 9 0 8 -6 -5 -20 -17 -19 -10 -28 11 -12 5 4 -7 -7 -26 -25 -19 -17 -32
-35 -27 -39 4 -4 13 0 20 10 7 9 26 19 42 21 l30 3 -30 -23 c-16 -13 -31 -24
-34 -23 -3 0 -16 -3 -28 -7 -30 -10 -31 -66 -3 -102 11 -14 20 -33 21 -42 0
-16 12 -36 63 -109 27 -40 28 -46 33 -194 l6 -153 -38 -49 c-31 -40 -36 -54
-30 -80 3 -17 9 -53 14 -81 4 -27 15 -66 26 -85 25 -48 27 -191 2 -237 -11
-21 -15 -42 -11 -62 9 -46 -17 -82 -56 -77 -17 2 -38 10 -48 18 -35 28 -101
58 -128 58 -16 0 -44 -9 -63 -21 -29 -17 -43 -20 -94 -14 -33 4 -76 14 -94 22
-40 16 -65 11 -90 -20 -10 -12 -37 -34 -59 -49 l-41 -27 -1 -78 c-1 -73 1 -81
36 -137 59 -93 103 -136 143 -136 57 0 249 69 249 89 0 15 59 33 85 27 34 -9
40 -28 21 -67 -20 -40 -20 -52 -1 -89 14 -28 20 -30 71 -30 42 0 64 6 92 25
48 33 87 33 108 0 l16 -25 350 0 349 0 26 30 c24 29 27 30 116 30 51 0 99 -5
107 -10 8 -5 11 -10 7 -10 -4 0 1 -9 11 -20 12 -13 27 -19 43 -16 13 3 29 5
36 5 6 1 19 9 29 18 16 16 18 16 32 -5 l14 -22 2224 0 2224 0 0 2885 c0 1587
-3 2885 -8 2885 -4 0 -25 -10 -47 -22 -76 -40 -306 -110 -370 -112 -33 -1 -65
-5 -72 -9 -6 -4 -22 -7 -34 -6 -13 0 -46 -6 -74 -14 -45 -13 -53 -13 -84 3
-40 20 -132 127 -164 190 -33 66 -31 173 3 223 31 45 86 74 110 59 14 -8 28
-3 66 24 98 69 121 82 159 93 21 5 50 21 64 34 58 54 167 93 267 96 55 2 94
-4 167 -25 16 -5 17 75 17 1585 l0 1591 -2131 0 c-2026 0 -2131 -1 -2124 -17
5 -10 11 -40 15 -68 5 -27 15 -68 24 -90 8 -22 15 -60 16 -84 1 -114 -129
-229 -260 -230 -90 -1 -159 21 -97 31 20 3 19 5 -13 26 -19 12 -51 22 -71 22
-22 0 -48 9 -69 25 -19 14 -41 25 -50 25 -8 0 -32 11 -53 25 -26 18 -37 22
-37 12 0 -18 -55 -122 -87 -165 -13 -18 -47 -44 -75 -58 -27 -14 -84 -50 -124
-80 -96 -71 -136 -88 -189 -79 -60 8 -136 61 -184 125 -53 70 -65 112 -50 179
13 63 46 104 101 126 23 9 73 37 111 62 37 26 87 50 110 54 23 4 72 16 109 25
80 21 126 12 174 -35 l31 -30 16 80 c9 45 23 90 33 100 17 19 -29 19 -2499 19
l-2517 0 0 -4740z m3094 3911 c11 0 16 -4 13 -8 -10 -10 -131 -7 -134 3 -3 8
54 10 121 5z m73 -10 c18 3 33 -2 33 -10 0 -10 -50 -9 -67 2 -22 14 -15 29 7
17 10 -6 23 -10 27 -9z m-207 -13 c0 -6 -6 -8 -14 -5 -7 3 -25 -1 -39 -8 -14
-7 -28 -11 -30 -8 -3 2 -16 -2 -29 -10 -34 -21 -79 -30 -72 -15 6 15 153 67
172 60 6 -2 12 -9 12 -14z m318 -15 c10 3 166 -74 174 -87 14 -20 -3 -19 -32
2 -16 12 -36 22 -44 22 -8 0 -18 5 -21 10 -3 6 -13 10 -22 10 -9 0 -25 8 -35
17 -10 9 -32 16 -48 16 -18 0 -30 6 -30 13 0 10 6 11 25 4 14 -5 29 -9 33 -7z
m-522 -52 c-3 -5 -14 -11 -25 -14 -14 -3 -18 -1 -14 9 3 8 14 14 25 14 10 0
17 -4 14 -9z m759 -81 c11 0 96 -93 89 -99 -2 -3 -25 16 -51 42 -25 26 -50 47
-54 47 -5 0 -14 10 -20 23 -12 21 -11 21 8 5 11 -10 23 -18 28 -18z m-892 -47
c-3 -7 -9 -13 -14 -13 -5 0 -9 6 -9 13 0 8 6 14 14 14 8 0 12 -6 9 -14z m5389
3 c89 -24 110 -35 156 -84 82 -88 107 -182 71 -276 -29 -79 -61 -112 -181
-185 -56 -36 -139 -88 -183 -116 -44 -29 -183 -105 -310 -170 -126 -64 -274
-142 -327 -172 -153 -86 -187 -97 -272 -83 -82 14 -144 49 -194 110 -51 62
-66 105 -66 195 -1 68 3 88 26 130 44 84 96 120 398 279 102 54 236 124 297
157 62 33 138 69 168 80 30 11 68 31 83 43 44 38 132 88 165 96 51 13 112 11
169 -4z m-5442 -56 c0 -5 -5 -10 -11 -10 -5 0 -7 5 -4 10 3 6 8 10 11 10 2 0
4 -4 4 -10z m857 -112 c-3 -8 -6 -5 -6 6 -1 11 2 17 5 13 3 -3 4 -12 1 -19z
m865 -243 c3 3 11 -1 17 -9 8 -10 9 -16 1 -21 -5 -3 -10 -2 -10 3 0 5 -11 7
-25 4 -17 -3 -25 0 -25 10 0 21 11 29 25 18 7 -5 14 -8 17 -5z m-765 -1 c-3
-3 -12 -4 -19 -1 -8 3 -5 6 6 6 11 1 17 -2 13 -5z m11 -37 c14 -15 17 -24 9
-24 -7 0 -21 11 -30 24 -10 13 -14 23 -9 23 5 0 18 -10 30 -23z m870 4 c27 4
56 -9 71 -32 13 -22 12 -22 -35 -14 -27 4 -62 9 -78 10 -34 2 -44 18 -26 40 9
11 17 12 31 4 11 -5 27 -9 37 -8z m-1209 -61 c11 -24 11 -24 -3 -6 -9 11 -16
24 -16 30 0 12 5 7 19 -24z m1465 4 c3 -8 15 -14 26 -14 20 0 25 -17 20 -65
-3 -26 -4 -27 -24 -19 -13 5 -17 15 -14 40 2 19 3 34 2 34 -1 0 -10 3 -19 6
-13 5 -15 2 -9 -20 5 -20 3 -26 -11 -26 -13 0 -16 6 -11 23 3 12 6 32 6 44 0
25 24 22 34 -3z m-76 -16 c13 -11 17 -38 5 -38 -5 0 -25 11 -46 24 -25 15 -34
26 -25 29 15 6 48 -1 66 -15z m-1273 -20 c5 4 5 1 1 -6 -5 -9 -12 -9 -27 -2
-10 6 -19 13 -19 16 0 2 8 0 19 -5 10 -6 22 -7 26 -3z m-74 -80 c8 -15 8 -18
0 -14 -6 4 -16 16 -22 28 -8 15 -8 18 0 14 6 -4 16 -16 22 -28z m17 7 c-3 -3
-9 2 -12 12 -6 14 -5 15 5 6 7 -7 10 -15 7 -18z m166 -37 c-45 -48 -74 -94
-66 -103 4 -5 1 -5 -6 -1 -8 5 -9 13 -2 25 6 12 5 22 -3 30 -9 10 -9 11 3 6
10 -3 30 9 55 35 47 48 62 54 19 8z m-121 -48 c-6 -7 -43 43 -43 59 0 8 11 -1
23 -20 13 -19 22 -36 20 -39z m-98 12 c-6 -7 -45 9 -45 18 0 4 11 3 24 -3 14
-7 23 -13 21 -15z m275 -7 c13 -14 21 -25 18 -25 -2 0 -15 11 -28 25 -13 14
-21 25 -18 25 2 0 15 -11 28 -25z m-233 -37 c-3 -8 -6 -5 -6 6 -1 11 2 17 5
13 3 -3 4 -12 1 -19z m77 6 c5 -14 4 -15 -9 -4 -17 14 -19 20 -6 20 5 0 12 -7
15 -16z m153 -43 c16 13 17 12 4 -3 -8 -11 -9 -18 -3 -18 6 0 17 -10 23 -22
l12 -23 -24 21 c-30 27 -69 47 -76 40 -6 -6 -32 23 -33 37 0 4 18 -5 40 -19
35 -23 42 -25 57 -13z m68 19 c3 -5 2 -10 -4 -10 -5 0 -13 5 -16 10 -3 6 -2
10 4 10 5 0 13 -4 16 -10z m-364 -27 c13 -16 12 -17 -3 -4 -10 7 -18 15 -18
17 0 8 8 3 21 -13z m104 -101 c-2 -2 -10 11 -18 28 -9 16 -11 28 -6 25 5 -4
10 11 10 32 1 30 3 25 9 -22 5 -33 7 -61 5 -63z m313 93 c0 -14 -5 -28 -11
-32 -6 -4 -8 4 -5 20 4 23 3 25 -13 16 -15 -7 -17 -6 -13 6 10 26 42 18 42
-10z m-240 -20 c-3 -3 -9 2 -12 12 -6 14 -5 15 5 6 7 -7 10 -15 7 -18z m1626
9 c4 -10 1 -14 -6 -12 -15 5 -23 28 -10 28 5 0 13 -7 16 -16z m-1571 -23 c3
-11 -2 -28 -10 -38 -13 -17 -13 -16 -3 5 9 18 8 22 -7 22 -14 0 -15 2 -4 9 8
5 10 14 6 21 -5 8 -4 11 2 7 6 -4 13 -16 16 -26z m61 -70 c-3 -3 -15 6 -27 18
l-22 24 27 -19 c14 -10 24 -21 22 -23z m1595 -2 c16 -13 21 -23 14 -30 -13
-13 -34 -3 -56 26 -17 24 -17 25 0 25 10 -1 29 -10 42 -21z m1172 -28 c30 -25
20 -45 -43 -84 -41 -25 -52 -28 -139 -27 -244 3 -262 37 -54 101 41 12 125 25
181 28 18 0 42 -7 55 -18z m-1121 -34 c0 -5 -4 -5 -10 -2 -5 3 -10 14 -10 23
0 15 2 15 10 2 5 -8 10 -19 10 -23z m49 -17 c5 -16 8 -30 6 -30 -10 0 -35 33
-35 46 0 25 18 15 29 -16z m221 -50 c0 -15 9 -35 20 -45 19 -17 28 -55 14 -55
-13 0 -74 42 -74 50 0 5 5 12 11 15 6 5 8 22 3 48 -6 38 -5 40 10 28 9 -7 16
-26 16 -41z m-1939 -7 l24 -26 -32 23 c-34 25 -39 30 -25 30 5 0 19 -12 33
-27z m5477 -83 c7 -11 16 -20 22 -20 30 0 124 -46 158 -78 41 -38 93 -105 94
-119 0 -4 4 -18 9 -31 13 -34 11 -71 -7 -131 -21 -74 -70 -123 -147 -151 -34
-13 -75 -33 -92 -45 -101 -74 -242 -144 -400 -202 -38 -14 -119 -50 -180 -80
-133 -66 -202 -77 -275 -44 -91 40 -182 155 -200 252 -15 79 0 133 61 207 54
67 88 89 192 121 78 24 98 33 131 64 13 12 59 40 103 61 43 22 87 49 98 61 11
11 65 36 120 55 54 18 133 48 175 66 88 38 120 42 138 14z m-2382 -263 c7 -19
-13 -66 -32 -74 -29 -11 -38 13 -20 51 17 36 42 47 52 23z m-455 -284 c-4 -94
-11 -93 -11 2 0 43 3 75 7 72 3 -4 5 -37 4 -74z m-3071 42 c7 -9 8 -15 2 -15
-5 0 -12 7 -16 15 -3 8 -4 15 -2 15 2 0 9 -7 16 -15z m-81 -47 c-6 -22 -6 -34
1 -36 5 -2 10 -8 10 -14 0 -6 -6 -6 -15 2 -18 15 -19 34 -5 61 16 29 20 23 9
-13z m113 13 c-7 -4 -12 -12 -11 -17 4 -25 -2 -64 -11 -64 -5 0 -18 8 -28 18
-10 10 -23 17 -29 15 -6 -2 -14 1 -18 6 -4 7 8 9 35 7 33 -3 40 -1 40 13 0 20
9 31 24 31 6 0 5 -4 -2 -9z m108 -16 c0 -7 -7 -19 -17 -26 -15 -13 -15 -12 -5
7 9 16 8 21 -4 21 -7 0 -15 -5 -15 -11 -1 -6 -3 -18 -4 -26 -1 -8 -3 -24 -4
-34 -1 -25 -13 -13 -15 15 0 12 -7 24 -15 27 -9 3 -11 0 -6 -9 5 -8 4 -11 0
-6 -5 4 -10 16 -12 27 -3 18 -1 19 17 8 17 -11 22 -10 30 2 5 8 7 17 5 21 -3
3 7 4 20 1 14 -2 25 -10 25 -17z m39 -61 c10 -22 9 -25 -6 -22 -10 2 -19 13
-21 26 -5 30 12 28 27 -4z m80 -19 c7 4 8 0 5 -10 -5 -11 0 -18 14 -22 18 -4
19 -7 7 -19 -19 -19 -24 -18 -47 12 -16 20 -23 23 -29 12 -6 -9 -9 -9 -9 -1 0
19 17 24 30 8 7 -8 18 -15 24 -15 6 0 -1 12 -16 25 -16 13 -28 27 -28 31 0 4
9 -1 19 -10 11 -10 24 -15 30 -11z m-103 -10 c16 -14 24 -25 17 -25 -6 0 -15
5 -19 11 -4 8 -9 8 -17 0 -14 -14 -27 -14 -27 -1 0 6 8 11 18 11 16 1 16 2 0
6 -10 2 -18 9 -18 14 0 15 16 10 46 -16z m2909 -295 c-4 -23 -9 -39 -11 -37
-3 2 -2 23 2 46 4 23 9 40 11 37 3 -3 2 -23 -2 -46z m-18 -82 c-3 -7 -5 -2 -5
12 0 14 2 19 5 13 2 -7 2 -19 0 -25z m-28 -122 c-12 -53 -25 -94 -27 -91 -2 2
6 47 19 99 12 53 25 94 27 91 2 -2 -6 -47 -19 -99z m-32 -128 c-3 -8 -6 -5 -6
6 -1 11 2 17 5 13 3 -3 4 -12 1 -19z m-10 -40 c-3 -8 -6 -5 -6 6 -1 11 2 17 5
13 3 -3 4 -12 1 -19z m-13 -57 c-4 -17 -9 -30 -11 -27 -3 2 -2 19 2 36 4 17 9
30 11 27 2 -2 1 -18 -2 -36z m1421 10 c6 -10 -30 -41 -125 -111 -53 -38 -146
-120 -255 -222 -71 -68 -89 -63 -36 8 48 67 188 192 317 284 70 50 88 57 99
41z m-1448 -133 c-3 -8 -6 -5 -6 6 -1 11 2 17 5 13 3 -3 4 -12 1 -19z m-1750
-34 c-3 -3 -12 -4 -19 -1 -8 3 -5 6 6 6 11 1 17 -2 13 -5z m2143 -8 c0 -2 -8
-10 -17 -17 -16 -13 -17 -12 -4 4 13 16 21 21 21 13z m-1185 -344 c-3 -3 -11
0 -18 7 -9 10 -8 11 6 5 10 -3 15 -9 12 -12z m2195 -162 c24 -8 24 -8 -7 -9
-17 -1 -35 -5 -38 -11 -8 -13 -125 -13 -145 0 -13 9 -13 11 0 20 18 11 154 12
190 0z m-1743 -210 c2 0 3 -5 3 -11 0 -7 -8 -9 -22 -4 -13 3 -43 7 -68 7 -35
0 -38 2 -12 5 17 2 32 8 32 13 0 5 15 4 32 -1 18 -5 34 -9 35 -9z m-142 0 c3
-5 2 -10 -4 -10 -5 0 -13 5 -16 10 -3 6 -2 10 4 10 5 0 13 -4 16 -10z m1741
-92 c-3 -12 0 -28 6 -36 16 -19 17 -52 3 -52 -7 0 -23 8 -36 18 -13 10 -31 21
-39 24 -24 9 -14 85 11 93 10 4 19 11 19 17 0 6 9 -1 21 -16 13 -17 19 -35 15
-48z m-5246 -28 c-8 -5 -17 -7 -19 -4 -3 3 1 9 9 14 8 5 17 7 19 4 3 -3 -1 -9
-9 -14z m3385 -22 c6 -5 10 -14 10 -21 0 -7 7 -12 15 -12 8 0 20 -11 27 -25 7
-14 17 -24 23 -22 5 1 10 -5 10 -13 0 -8 7 -15 16 -15 9 0 12 -5 8 -12 -5 -7
-2 -9 8 -5 9 3 35 1 58 -5 33 -9 39 -13 26 -20 -9 -5 -14 -13 -11 -17 9 -15
-21 -31 -68 -37 -51 -7 -82 10 -124 69 -18 26 -53 126 -53 153 0 8 43 -6 55
-18z m-128 -104 c-3 -3 -12 -4 -19 -1 -8 3 -5 6 6 6 11 1 17 -2 13 -5z m1867
-136 l25 -33 14 33 c15 37 27 32 27 -12 0 -17 7 -64 15 -105 19 -87 10 -108
-29 -72 -17 16 -31 21 -45 16 -12 -3 -21 -9 -21 -13 0 -11 -98 -112 -108 -112
-17 0 -19 163 -2 168 6 2 10 10 10 18 0 8 9 22 20 31 11 10 20 23 20 31 0 22
28 82 39 82 5 0 21 -15 35 -32z m-1624 -102 c0 -3 -4 -8 -10 -11 -5 -3 -10 -1
-10 4 0 6 5 11 10 11 6 0 10 -2 10 -4z m47 -58 c-3 -8 -6 -5 -6 6 -1 11 2 17
5 13 3 -3 4 -12 1 -19z m93 -68 c0 -10 -6 -21 -12 -23 -9 -4 -8 -6 3 -6 8 -1
21 5 28 12 11 10 11 8 1 -11 -18 -36 -6 -37 24 -2 21 26 26 28 27 13 1 -10 1
-22 0 -26 -1 -4 3 -16 9 -26 8 -16 5 -19 -25 -23 -23 -3 -36 1 -40 10 -3 7 -9
10 -15 7 -5 -3 -15 -3 -21 1 -8 4 -7 9 2 15 10 6 8 9 -8 9 -13 0 -23 5 -23 11
0 5 5 7 12 3 8 -5 9 -2 5 9 -4 10 0 20 11 26 12 8 13 10 3 11 -8 0 -23 -7 -33
-17 -10 -9 -18 -13 -18 -10 0 3 9 15 21 26 24 22 49 18 49 -9z m92 -22 c-7 -7
-12 -8 -12 -2 0 14 12 26 19 19 2 -3 -1 -11 -7 -17z m34 -4 c-4 -12 -2 -15 9
-10 11 4 15 -1 15 -19 0 -14 -4 -25 -10 -25 -5 0 -10 -6 -10 -14 0 -7 -8 -20
-17 -27 -14 -12 -16 -12 -8 0 6 11 4 13 -8 8 -16 -6 -16 -4 -1 24 8 17 11 28
6 25 -22 -14 -22 16 0 34 28 24 32 24 24 4z m1425 -26 c4 -88 -2 -301 -10
-321 -12 -31 -45 -36 -59 -9 -16 31 -22 95 -10 110 9 10 8 20 -5 42 -16 26
-16 30 -2 38 10 5 19 31 25 70 4 34 11 66 15 72 9 14 45 13 46 -2z m-4344 -14
c-3 -3 -12 -4 -19 -1 -8 3 -5 6 6 6 11 1 17 -2 13 -5z m2980 -18 c-3 -8 -1
-16 6 -19 6 -2 1 -6 -11 -9 -24 -7 -30 10 -10 30 16 16 21 15 15 -2z m1183
-11 c-7 -9 -15 -13 -17 -11 -7 7 7 26 19 26 6 0 6 -6 -2 -15z m-1320 -15 c0
-5 -5 -10 -11 -10 -5 0 -7 5 -4 10 3 6 8 10 11 10 2 0 4 -4 4 -10z m-3310 -64
c0 -2 -7 -7 -16 -10 -8 -3 -12 -2 -9 4 6 10 25 14 25 6z m397 -2 c-3 -3 -12
-4 -19 -1 -8 3 -5 6 6 6 11 1 17 -2 13 -5z m-37 -8 c0 -2 -51 -9 -112 -16
-122 -13 -252 -34 -281 -45 -13 -6 -16 -3 -11 9 4 9 18 16 35 16 15 0 72 7
126 15 138 21 243 30 243 21z m5658 -16 c22 -11 45 -20 50 -20 4 0 23 -11 42
-25 19 -14 40 -23 48 -20 8 3 10 0 6 -7 -5 -7 -2 -9 8 -6 28 11 92 -34 112
-79 24 -54 31 -57 239 -93 92 -17 163 -47 196 -86 17 -19 31 -42 31 -52 0 -49
-82 -239 -126 -292 -15 -17 -38 -37 -53 -44 -62 -33 -345 -66 -557 -66 -205 0
-261 16 -333 97 -106 118 -117 237 -45 458 10 28 23 59 30 70 8 11 14 26 14
35 1 20 91 110 115 115 11 2 20 4 20 5 0 1 7 3 17 5 9 2 24 8 35 14 29 17 106
13 151 -9z m-6163 -50 c-49 -10 -116 -23 -148 -29 -33 -7 -61 -11 -63 -9 -2 3
42 14 99 26 144 31 139 30 172 30 17 0 -10 -8 -60 -18z m375 0 c-63 -10 -155
-28 -205 -39 -112 -27 -247 -52 -252 -47 -5 5 57 20 227 56 181 38 243 48 300
48 27 0 -1 -7 -70 -18z m2850 16 c0 -2 -8 -10 -17 -17 -16 -13 -17 -12 -4 4
13 16 21 21 21 13z m40 -20 c0 -2 -7 -7 -16 -10 -8 -3 -12 -2 -9 4 6 10 25 14
25 6z m64 -11 c-4 -8 -1 -15 6 -15 6 0 8 -4 5 -10 -4 -6 -11 -5 -20 3 -9 8
-10 16 -3 25 14 16 19 15 12 -3z m-234 -15 c-8 -5 -18 -6 -24 -3 -5 4 -1 10
10 13 24 9 34 2 14 -10z m-3080 0 c-8 -5 -19 -10 -25 -10 -5 0 -3 5 5 10 8 5
20 10 25 10 6 0 3 -5 -5 -10z m3365 -10 c-3 -5 -11 -10 -16 -10 -6 0 -7 5 -4
10 3 6 11 10 16 10 6 0 7 -4 4 -10z m1412 4 c-3 -3 -12 -4 -19 -1 -8 3 -5 6 6
6 11 1 17 -2 13 -5z m-5020 -10 c-3 -3 -12 -4 -19 -1 -8 3 -5 6 6 6 11 1 17
-2 13 -5z m118 -29 c-46 -12 -48 -13 -16 -14 19 -1 32 -4 28 -7 -3 -4 -28 -3
-54 1 l-48 8 50 13 c28 7 59 12 70 12 11 0 -2 -6 -30 -13z m-228 -1 c-3 -3
-12 -4 -19 -1 -8 3 -5 6 6 6 11 1 17 -2 13 -5z m3608 -4 c3 -6 -1 -7 -9 -4
-18 7 -21 14 -7 14 6 0 13 -4 16 -10z m-3660 -5 c-36 -14 -341 -103 -343 -100
-4 3 198 68 288 93 34 10 75 14 55 7z m178 -2 c-7 -2 -19 -2 -25 0 -7 3 -2 5
12 5 14 0 19 -2 13 -5z m3527 -2 c0 -5 -7 -12 -16 -15 -14 -5 -15 -4 -4 9 14
17 20 19 20 6z m40 -6 c-7 -8 -16 -15 -21 -15 -5 0 -6 7 -3 15 4 8 13 15 21
15 13 0 13 -3 3 -15z m1451 -2 c13 -16 12 -17 -3 -4 -10 7 -18 15 -18 17 0 8
8 3 21 -13z m-196 -11 c-3 -3 -11 0 -18 7 -9 10 -8 11 6 5 10 -3 15 -9 12 -12z
m-4782 1 c-7 -2 -19 -2 -25 0 -7 3 -2 5 12 5 14 0 19 -2 13 -5z m5000 -26 c9
-4 17 -11 17 -16 0 -15 -57 17 -64 36 -6 15 -5 15 11 1 10 -8 26 -18 36 -21z
m-5076 7 c-3 -3 -12 -4 -19 -1 -8 3 -5 6 6 6 11 1 17 -2 13 -5z m-67 -14 c-14
-4 -34 -8 -45 -8 -16 0 -15 2 5 8 14 4 34 8 45 8 16 0 15 -2 -5 -8z m-73 -16
c-3 -3 -12 -4 -19 -1 -8 3 -5 6 6 6 11 1 17 -2 13 -5z m5081 -30 c-4 -3 -12 5
-18 18 -12 22 -12 22 6 6 10 -10 15 -20 12 -24z m188 0 c7 3 17 -1 23 -7 11
-14 10 -127 -1 -127 -4 0 -5 -26 -3 -57 10 -127 10 -203 3 -203 -5 0 -4 -9 2
-21 7 -11 9 -23 6 -26 -3 -4 -1 -12 5 -19 6 -8 9 -21 5 -29 -3 -9 0 -26 8 -38
7 -12 19 -44 25 -70 7 -27 18 -59 26 -70 8 -12 14 -25 15 -29 1 -11 6 -26 28
-93 23 -66 42 -136 47 -175 2 -14 8 -47 14 -75 10 -51 6 -207 -7 -280 -6 -30
-12 -39 -25 -37 -11 2 -17 -4 -17 -15 0 -13 -3 -14 -11 -6 -13 13 -39 -6 -39
-28 0 -8 -4 -8 -15 1 -12 10 -19 10 -27 2 -8 -8 -15 -8 -24 -1 -8 7 -14 7 -19
-1 -9 -14 -25 -13 -25 3 -1 6 -7 26 -15 42 l-15 30 6 -42 c5 -40 -6 -58 -20
-34 -3 5 -16 7 -27 4 -19 -5 -20 -3 -14 18 l8 24 -21 -25 c-18 -21 -21 -22
-22 -7 0 9 -7 17 -15 17 -8 0 -15 5 -15 10 0 6 -7 10 -15 10 -8 0 -31 16 -51
35 -20 19 -46 35 -59 35 -12 0 -26 7 -29 16 -3 8 -10 12 -16 9 -5 -3 -10 0
-11 7 0 10 -2 10 -6 1 -8 -21 -20 -15 -25 12 -6 29 9 45 18 21 10 -26 25 -18
18 9 -6 26 1 31 26 15 18 -11 40 6 40 32 0 10 5 16 10 13 7 -4 7 -12 0 -25
-13 -24 -13 -30 0 -30 6 0 10 6 10 13 0 19 43 63 48 49 5 -16 32 -15 31 1 -1
18 -17 54 -18 40 -1 -7 -8 -13 -16 -13 -18 0 -20 17 -2 23 9 3 8 12 -5 35 -10
16 -18 38 -18 48 0 21 11 13 14 -12 5 -35 26 -27 26 10 0 20 5 36 11 36 5 0 8
-4 5 -8 -7 -11 14 -93 31 -117 12 -18 13 -18 13 8 0 16 5 27 14 27 7 0 20 8
27 17 10 11 10 14 2 9 -19 -11 -16 30 4 65 10 16 23 27 30 25 18 -7 16 9 -3
24 -8 8 -14 9 -12 3 3 -11 -1 -13 -23 -13 -11 0 -9 14 6 55 7 16 6 18 -6 8
-20 -19 -25 -16 -46 25 -19 36 -19 38 -1 55 10 9 18 13 18 8 0 -5 3 -17 6 -26
4 -9 3 -15 -2 -13 -19 6 -14 -16 4 -23 28 -11 34 10 14 51 -14 30 -14 33 1 45
15 11 15 15 -3 51 -25 49 -25 64 0 57 14 -4 20 0 20 12 0 14 3 15 14 6 8 -7
17 -8 20 -3 7 12 -20 35 -44 37 -22 2 -50 28 -50 47 1 7 12 0 25 -17 18 -22
25 -25 25 -13 0 9 -4 19 -10 23 -5 3 -7 12 -4 20 4 8 11 12 16 9 6 -4 8 2 3
15 -3 11 -2 21 3 21 6 0 8 9 5 20 -3 11 -9 17 -14 15 -4 -3 -6 -11 -3 -19 3
-7 -2 -13 -10 -13 -8 0 -13 4 -10 9 3 5 -2 18 -12 29 -15 16 -16 22 -5 28 9 6
10 14 5 22 -5 8 -7 21 -6 30 2 9 -4 22 -13 29 -8 7 -15 18 -15 24 0 6 7 3 14
-7 9 -12 16 -14 21 -8 3 6 1 11 -6 11 -8 0 -8 4 1 15 11 13 10 14 -1 10 -15
-6 -46 49 -41 73 2 6 -3 12 -10 12 -10 0 -10 2 0 9 11 7 11 14 -4 42 -14 29
-15 32 -1 21 9 -7 19 -28 23 -45 4 -18 9 -26 12 -19 3 10 8 8 19 -5 8 -10 5
-1 -6 20 -12 21 -16 35 -10 31 7 -4 10 -1 7 7 -3 8 -10 13 -15 12 -5 -1 -9 7
-9 17 0 10 4 16 10 13 5 -4 6 6 2 23 -4 16 -4 25 1 19 5 -5 19 -23 33 -39 14
-16 18 -25 10 -20 -21 12 -40 14 -40 4 0 -5 5 -12 10 -15 6 -3 10 -1 10 6 0 8
4 8 15 -1 24 -20 31 -3 12 29 -19 32 -21 41 -9 41 4 0 13 -13 20 -30 8 -16 17
-30 22 -30 5 0 -1 18 -13 40 -12 22 -27 40 -34 40 -6 0 -15 4 -18 10 -4 6 1 7
12 3 16 -6 16 -5 4 10 -24 30 -1 18 30 -15 16 -18 29 -26 29 -19 0 8 -8 23
-17 33 -16 18 -16 18 3 12 17 -7 17 -6 5 9 -7 9 -18 14 -24 10 -6 -3 -7 -1 -3
5 5 8 18 5 43 -9 19 -11 41 -18 49 -15z m-5311 21 c-23 -9 -199 -45 -202 -41
-6 6 157 44 187 44 14 0 21 -1 15 -3z m4983 -31 c-4 -3 -12 5 -18 18 -12 22
-12 22 6 6 10 -10 15 -20 12 -24z m173 14 c11 -21 11 -22 -4 -9 -10 7 -17 17
-17 22 0 15 9 10 21 -13z m-5491 -23 c-14 -8 -29 -14 -35 -14 -5 0 1 6 15 14
14 8 30 14 35 14 6 0 -1 -6 -15 -14z m4310 -1 c0 -8 -5 -12 -10 -9 -6 4 -8 11
-5 16 9 14 15 11 15 -7z m-4193 -10 c-3 -3 -12 -4 -19 -1 -8 3 -5 6 6 6 11 1
17 -2 13 -5z m5293 -31 c0 -20 -16 -8 -23 17 -4 17 -3 19 9 9 8 -6 14 -18 14
-26z m-5480 12 c-14 -8 -29 -14 -35 -14 -5 0 1 6 15 14 14 8 30 14 35 14 6 0
-1 -6 -15 -14z m147 9 c-3 -3 -12 -4 -19 -1 -8 3 -5 6 6 6 11 1 17 -2 13 -5z
m4073 2 c0 -2 -7 -7 -16 -10 -8 -3 -12 -2 -9 4 6 10 25 14 25 6z m1319 -26
c11 -24 11 -24 -3 -6 -9 11 -16 24 -16 30 0 12 5 7 19 -24z m-5444 11 c-11 -5
-36 -11 -55 -14 -35 -6 -34 -6 5 8 43 14 84 19 50 6z m4245 -1 c0 -5 -5 -10
-11 -10 -5 0 -7 5 -4 10 3 6 8 10 11 10 2 0 4 -4 4 -10z m1090 -54 c0 -13 -39
35 -40 48 0 5 9 -1 20 -14 11 -13 20 -28 20 -34z m-5520 0 c-36 -13 -103 -37
-149 -55 -46 -17 -86 -30 -88 -28 -4 4 207 88 247 98 56 15 51 6 -10 -15z
m5581 7 c13 -16 12 -17 -3 -4 -10 7 -18 15 -18 17 0 8 8 3 21 -13z m-1141 -7
c0 -2 -7 -6 -15 -10 -8 -3 -15 -1 -15 4 0 6 7 10 15 10 8 0 15 -2 15 -4z m-82
-56 c-52 -32 -58 -35 -58 -21 0 11 69 49 90 50 8 0 -6 -13 -32 -29z m1192 9
c0 -5 -4 -9 -10 -9 -5 0 -10 7 -10 16 0 8 5 12 10 9 6 -3 10 -10 10 -16z m50
-49 c35 -69 34 -67 15 -67 -8 0 -12 4 -9 9 3 4 -6 33 -20 63 -33 74 -24 70 14
-5z m-143 20 c-2 -29 -17 -24 -17 6 0 14 4 23 9 19 6 -3 9 -14 8 -25z m163 9
c0 -6 -4 -7 -10 -4 -5 3 -10 11 -10 16 0 6 5 7 10 4 6 -3 10 -11 10 -16z
m-1262 -21 c-3 -7 -13 -15 -24 -17 -16 -3 -17 -1 -5 13 16 19 34 21 29 4z
m1066 -3 c3 -8 1 -15 -4 -15 -6 0 -10 7 -10 15 0 8 2 15 4 15 2 0 6 -7 10 -15z
m-5684 -5 c-8 -5 -19 -10 -25 -10 -5 0 -3 5 5 10 8 5 20 10 25 10 6 0 3 -5 -5
-10z m4551 -31 c-16 -6 -28 -6 -35 1 -7 7 1 10 25 9 32 0 33 -1 10 -10z
m-4651 -14 c-14 -8 -29 -14 -35 -14 -5 0 1 6 15 14 14 8 30 14 35 14 6 0 -1
-6 -15 -14z m6014 -140 c6 -35 5 -37 -6 -20 -13 22 -21 82 -8 68 4 -4 10 -26
14 -48z m-4771 -22 c-7 -2 -19 -2 -25 0 -7 3 -2 5 12 5 14 0 19 -2 13 -5z
m-46 -9 c-3 -3 -12 -4 -19 -1 -8 3 -5 6 6 6 11 1 17 -2 13 -5z m820 -17 c-20
-12 -109 -60 -197 -107 -118 -62 -156 -86 -143 -92 14 -5 13 -7 -7 -7 -14 -1
-34 -7 -45 -14 -11 -8 -105 -53 -210 -102 -104 -48 -203 -97 -219 -109 -16
-11 -26 -15 -22 -8 11 18 2 15 -74 -23 -39 -19 -70 -33 -70 -30 0 3 64 37 143
76 78 39 160 84 182 99 45 31 105 63 105 56 0 -2 -25 -18 -56 -36 -31 -17 -54
-33 -51 -36 5 -6 256 109 257 117 1 21 -39 16 -87 -11 -30 -17 -52 -26 -48
-21 3 6 21 19 38 29 32 17 32 17 -108 23 l-140 5 153 1 c122 1 158 4 177 17
34 22 45 20 15 -4 l-25 -20 23 0 c19 0 212 97 387 196 52 29 71 30 22 1z
m4018 -37 c3 -5 1 -10 -4 -10 -6 0 -11 5 -11 10 0 6 2 10 4 10 3 0 8 -4 11
-10z m15 -40 c0 -5 -2 -10 -4 -10 -3 0 -8 5 -11 10 -3 6 -1 10 4 10 6 0 11 -4
11 -10z m-4350 -45 c0 -2 -13 -11 -30 -20 -38 -19 -40 -11 -2 9 31 17 32 18
32 11z m4301 -72 c13 -16 12 -17 -3 -4 -10 7 -18 15 -18 17 0 8 8 3 21 -13z
m-4228 -20 c-13 -2 -35 -2 -50 0 -16 2 -5 4 22 4 28 0 40 -2 28 -4z m100 -10
c-7 -2 -21 -2 -30 0 -10 3 -4 5 12 5 17 0 24 -2 18 -5z m4157 -3 c0 -5 -2 -10
-4 -10 -3 0 -8 5 -11 10 -3 6 -1 10 4 10 6 0 11 -4 11 -10z m-4022 -7 c-10 -2
-26 -2 -35 0 -10 3 -2 5 17 5 19 0 27 -2 18 -5z m260 -20 c-10 -2 -28 -2 -40
0 -13 2 -5 4 17 4 22 1 32 -1 23 -4z m3752 -18 c14 -19 14 -19 -2 -6 -10 7
-18 18 -18 24 0 6 1 8 3 6 1 -2 9 -13 17 -24z m-3677 8 c-7 -2 -21 -2 -30 0
-10 3 -4 5 12 5 17 0 24 -2 18 -5z m60 -10 c-7 -2 -21 -2 -30 0 -10 3 -4 5 12
5 17 0 24 -2 18 -5z m3661 -10 c9 -22 -10 -41 -26 -25 -9 9 -8 12 6 12 15 0
16 3 6 15 -7 9 -8 15 -2 15 5 0 13 -8 16 -17z m-3611 0 c-7 -2 -19 -2 -25 0
-7 3 -2 5 12 5 14 0 19 -2 13 -5z m3482 -3 c3 -5 1 -10 -4 -10 -6 0 -11 5 -11
10 0 6 2 10 4 10 3 0 8 -4 11 -10z m-3400 -10 c27 -7 27 -8 5 -8 -14 0 -36 4
-50 8 -20 6 -21 8 -5 8 11 0 34 -4 50 -8z m90 -20 c25 -11 -1 -11 -35 0 -20 6
-21 8 -5 8 11 0 29 -3 40 -8z m3395 -22 c0 -6 -7 -5 -15 2 -8 7 -15 17 -15 22
0 6 7 5 15 -2 8 -7 15 -17 15 -22z m-3281 -4 c9 -8 -45 -2 -64 6 -14 7 -8 8
20 3 22 -3 42 -7 44 -9z m78 -20 c-3 -3 -12 -4 -19 -1 -8 3 -5 6 6 6 11 1 17
-2 13 -5z m128 -33 c79 -25 59 -26 -25 -2 -36 11 -58 20 -50 20 8 0 42 -8 75
-18z m3055 -12 c0 -6 -4 -7 -10 -4 -5 3 -10 11 -10 16 0 6 5 7 10 4 6 -3 10
-11 10 -16z m-2945 -19 c13 -5 14 -9 5 -9 -8 0 -24 4 -35 9 -13 5 -14 9 -5 9
8 0 24 -4 35 -9z m-462 -7 c-7 -2 -19 -2 -25 0 -7 3 -2 5 12 5 14 0 19 -2 13
-5z m514 -9 c-3 -3 -12 -4 -19 -1 -8 3 -5 6 6 6 11 1 17 -2 13 -5z m-420 -10
c-3 -3 -12 -4 -19 -1 -8 3 -5 6 6 6 11 1 17 -2 13 -5z m68 -14 c25 -11 -1 -11
-35 0 -20 6 -21 8 -5 8 11 0 29 -3 40 -8z m3300 -10 c3 -5 1 -10 -4 -10 -6 0
-11 5 -11 10 0 6 2 10 4 10 3 0 8 -4 11 -10z m-4935 -4 c0 -2 -8 -10 -17 -17
-16 -13 -17 -12 -4 4 13 16 21 21 21 13z m1735 -11 c54 -17 33 -18 -30 -1 -27
8 -41 14 -30 14 11 0 38 -5 60 -13z m3143 3 c19 -19 14 -29 -8 -16 -20 13 -27
28 -12 28 4 0 13 -5 20 -12z m47 -18 c3 -5 1 -10 -4 -10 -6 0 -11 5 -11 10 0
6 2 10 4 10 3 0 8 -4 11 -10z m-3118 -6 c-3 -3 -12 -4 -19 -1 -8 3 -5 6 6 6
11 1 17 -2 13 -5z m40 -10 c-3 -3 -12 -4 -19 -1 -8 3 -5 6 6 6 11 1 17 -2 13
-5z m3113 -3 c0 -5 -7 -14 -15 -21 -12 -10 -15 -10 -15 2 0 8 3 18 7 21 9 10
23 9 23 -2z m-3400 -61 c139 -43 142 -55 5 -15 -72 21 -154 54 -135 54 3 0 61
-17 130 -39z m417 24 c-3 -3 -12 -4 -19 -1 -8 3 -5 6 6 6 11 1 17 -2 13 -5z
m2956 -25 c3 -11 0 -19 -8 -19 -12 0 -25 21 -25 41 0 16 28 -2 33 -22z m-2916
15 c-3 -3 -12 -4 -19 -1 -8 3 -5 6 6 6 11 1 17 -2 13 -5z m110 -30 c-3 -3 -12
-4 -19 -1 -8 3 -5 6 6 6 11 1 17 -2 13 -5z m-364 -41 c-7 -2 -19 -2 -25 0 -7
3 -2 5 12 5 14 0 19 -2 13 -5z m494 1 c-3 -3 -12 -4 -19 -1 -8 3 -5 6 6 6 11
1 17 -2 13 -5z m86 -1 c-13 -2 -33 -2 -45 0 -13 2 -3 4 22 4 25 0 35 -2 23 -4z
m304 -9 c-3 -3 -12 -4 -19 -1 -8 3 -5 6 6 6 11 1 17 -2 13 -5z m-720 -20 c-3
-3 -12 -4 -19 -1 -8 3 -5 6 6 6 11 1 17 -2 13 -5z m505 -45 c153 -51 212 -75
153 -63 -63 13 -110 26 -120 34 -5 4 -57 24 -115 44 -58 20 -97 36 -88 36 9 0
86 -23 170 -51z m-444 34 c-10 -2 -26 -2 -35 0 -10 3 -2 5 17 5 19 0 27 -2 18
-5z m-273 -14 c83 -6 159 -15 170 -20 14 -7 7 -8 -25 -4 -108 12 -454 26 -555
22 -75 -3 -90 -2 -45 3 107 11 296 11 455 -1z m342 5 c-3 -3 -12 -4 -19 -1 -8
3 -5 6 6 6 11 1 17 -2 13 -5z m-914 -21 c-13 -2 -35 -2 -50 0 -16 2 -5 4 22 4
28 0 40 -2 28 -4z m1080 0 c-13 -2 -35 -2 -50 0 -16 2 -5 4 22 4 28 0 40 -2
28 -4z m-1195 -10 c-15 -2 -42 -2 -60 0 -18 2 -6 4 27 4 33 0 48 -2 33 -4z
m-125 -10 c-18 -2 -48 -2 -65 0 -18 2 -4 4 32 4 36 0 50 -2 33 -4z m1040 0
c-7 -2 -19 -2 -25 0 -7 3 -2 5 12 5 14 0 19 -2 13 -5z m-1165 -10 c-15 -2 -42
-2 -60 0 -18 2 -6 4 27 4 33 0 48 -2 33 -4z m1274 -8 c125 -26 209 -48 204
-53 -3 -2 -45 5 -93 17 -48 12 -115 27 -148 35 -82 19 -53 20 37 1z m-1429 -2
c-13 -2 -33 -2 -45 0 -13 2 -3 4 22 4 25 0 35 -2 23 -4z m4037 -43 c0 -21 -15
-27 -25 -10 -7 12 2 30 16 30 5 0 9 -9 9 -20z m-2309 -29 c35 -10 110 -31 166
-46 57 -16 101 -30 99 -32 -4 -4 -220 53 -306 81 -66 21 -33 19 41 -3z m-344
-50 c54 -3 -91 -6 -322 -6 -303 0 -378 2 -270 7 83 4 161 9 175 12 27 4 261
-2 417 -13z m-794 -18 c-13 -2 -33 -2 -45 0 -13 2 -3 4 22 4 25 0 35 -2 23 -4z
m1094 -4 c43 -6 81 -14 85 -18 4 -3 -39 -5 -94 -3 -64 2 -97 7 -88 12 10 6 -6
10 -45 13 l-60 3 62 2 c34 1 97 -3 140 -9z m-1214 -6 c-13 -2 -33 -2 -45 0
-13 2 -3 4 22 4 25 0 35 -2 23 -4z m-120 -10 c-13 -2 -33 -2 -45 0 -13 2 -3 4
22 4 25 0 35 -2 23 -4z m-125 -10 c-10 -2 -26 -2 -35 0 -10 3 -2 5 17 5 19 0
27 -2 18 -5z m685 0 c-40 -2 -106 -2 -145 0 -40 1 -8 3 72 3 80 0 112 -2 73
-3z m416 -3 c-216 -9 -272 -23 -129 -34 50 -4 90 -10 87 -12 -2 -3 -72 0 -155
6 -147 10 -214 7 -487 -25 -32 -4 -35 -3 -14 4 33 11 167 28 282 37 48 3 87
10 87 15 0 9 122 15 360 15 l155 1 -186 -7z m-1276 -7 c-35 -2 -91 -2 -125 0
-35 2 -7 3 62 3 69 0 97 -1 63 -3z m615 0 c-10 -2 -26 -2 -35 0 -10 3 -2 5 17
5 19 0 27 -2 18 -5z m-101 -9 c-3 -3 -12 -4 -19 -1 -8 3 -5 6 6 6 11 1 17 -2
13 -5z m-79 -11 c-10 -2 -26 -2 -35 0 -10 3 -2 5 17 5 19 0 27 -2 18 -5z m-81
-9 c-3 -3 -12 -4 -19 -1 -8 3 -5 6 6 6 11 1 17 -2 13 -5z m-74 -11 c-7 -2 -19
-2 -25 0 -7 3 -2 5 12 5 14 0 19 -2 13 -5z m5768 -12 c50 -15 71 -36 103 -103
40 -81 39 -156 -3 -248 -33 -73 -65 -118 -87 -124 -11 -3 -85 -9 -164 -12
-105 -5 -141 -4 -136 4 7 12 6 16 -49 109 -31 54 -37 73 -42 147 -6 82 -5 88
21 125 43 62 100 109 137 114 51 7 179 0 220 -12z m-5521 -21 c-14 -4 -34 -8
-45 -8 -16 0 -15 2 5 8 14 4 34 8 45 8 16 0 15 -2 -5 -8z m160 -10 c-34 -11
-60 -11 -35 0 11 5 29 8 40 8 16 0 15 -2 -5 -8z m97 4 c-3 -3 -12 -4 -19 -1
-8 3 -5 6 6 6 11 1 17 -2 13 -5z m740 0 c-3 -3 -12 -4 -19 -1 -8 3 -5 6 6 6
11 1 17 -2 13 -5z m-1070 -10 c-3 -3 -12 -4 -19 -1 -8 3 -5 6 6 6 11 1 17 -2
13 -5z m491 -1 c-21 -2 -55 -2 -75 0 -21 2 -4 4 37 4 41 0 58 -2 38 -4z m-785
-10 c-7 -2 -21 -2 -30 0 -10 3 -4 5 12 5 17 0 24 -2 18 -5z m460 0 c-7 -2 -21
-2 -30 0 -10 3 -4 5 12 5 17 0 24 -2 18 -5z m1034 1 c-3 -3 -12 -4 -19 -1 -8
3 -5 6 6 6 11 1 17 -2 13 -5z m-1404 -11 c-7 -2 -21 -2 -30 0 -10 3 -4 5 12 5
17 0 24 -2 18 -5z m92 -3 c-11 -5 -27 -9 -35 -9 -13 -1 -13 0 0 9 8 5 24 9 35
9 l20 0 -20 -9z m198 3 c-7 -2 -19 -2 -25 0 -7 3 -2 5 12 5 14 0 19 -2 13 -5z
m1277 -14 c16 -6 3 -7 -34 -3 -33 3 -69 10 -80 15 -26 11 78 0 114 -12z
m-1323 -3 c-2 -6 -15 -10 -29 -8 -21 2 -133 -30 -223 -64 -11 -4 -17 -4 -13 1
4 4 51 23 105 42 80 27 90 33 53 29 -30 -4 -37 -3 -20 3 39 12 131 10 127 -3z
m1180 8 c-3 -3 -12 -4 -19 -1 -8 3 -5 6 6 6 11 1 17 -2 13 -5z m-184 -11 c-7
-2 -21 -2 -30 0 -10 3 -4 5 12 5 17 0 24 -2 18 -5z m-1272 -33 c-109 -33 -194
-73 -289 -136 -40 -26 -54 -32 -35 -16 80 69 327 181 398 181 11 0 -22 -13
-74 -29z m782 23 c-83 -2 -223 -2 -310 0 -87 1 -18 3 152 3 171 0 242 -2 158
-3z m934 1 c-3 -3 -12 -4 -19 -1 -8 3 -5 6 6 6 11 1 17 -2 13 -5z m-564 -11
c-13 -2 -33 -2 -45 0 -13 2 -3 4 22 4 25 0 35 -2 23 -4z m660 0 c-13 -2 -33
-2 -45 0 -13 2 -3 4 22 4 25 0 35 -2 23 -4z m-586 -9 c-3 -3 -12 -4 -19 -1 -8
3 -5 6 6 6 11 1 17 -2 13 -5z m60 -10 c-3 -3 -12 -4 -19 -1 -8 3 -5 6 6 6 11
1 17 -2 13 -5z m1976 -9 c-3 -9 -8 -14 -10 -11 -3 3 -2 9 2 15 9 16 15 13 8
-4z m-1930 -2 c-7 -2 -19 -2 -25 0 -7 3 -2 5 12 5 14 0 19 -2 13 -5z m187 -2
c15 -4 -14 -8 -70 -8 -57 0 -87 3 -75 8 25 9 111 10 145 0z m-203 -27 c-3 -3
-12 -4 -19 -1 -8 3 -5 6 6 6 11 1 17 -2 13 -5z m222 -10 c2 -2 -16 -4 -42 -4
-25 0 -48 4 -51 9 -5 8 84 3 93 -5z m-281 -1 c-10 -2 -26 -2 -35 0 -10 3 -2 5
17 5 19 0 27 -2 18 -5z m-61 -9 c-3 -3 -12 -4 -19 -1 -8 3 -5 6 6 6 11 1 17
-2 13 -5z m2149 -39 c-8 -21 4 -46 18 -38 6 3 0 -6 -14 -21 -25 -27 -38 -21
-24 12 7 17 10 27 12 50 1 6 5 12 8 12 3 0 4 -7 0 -15z m-36 1 c0 -2 -7 -9
-15 -16 -13 -11 -14 -10 -9 4 5 14 24 23 24 12z m-2351 -10 c-2 -2 -26 -6 -54
-9 -34 -4 -42 -3 -25 3 25 8 87 13 79 6z m3086 -52 c0 -23 -6 -39 -17 -45 -33
-18 -42 -48 -21 -71 18 -21 18 -21 -5 -9 -13 7 -30 10 -37 7 -19 -7 -30 13
-16 27 13 13 14 27 3 27 -5 0 -21 -17 -35 -37 -22 -31 -24 -38 -11 -47 9 -7
13 -23 10 -43 -3 -28 1 -36 28 -52 17 -11 44 -34 61 -51 25 -26 27 -33 15 -40
-10 -7 -18 -5 -25 3 -5 8 -31 26 -57 41 -25 15 -52 33 -58 41 -18 21 -38 18
-45 -6 -5 -14 -10 -18 -17 -11 -12 12 -43 -15 -52 -45 -4 -14 2 -24 26 -37 17
-11 49 -35 69 -54 57 -51 66 -34 14 26 -25 30 -45 51 -45 47 0 -3 -9 -1 -20 5
-11 6 -20 15 -20 21 0 6 8 3 18 -7 14 -14 18 -15 20 -3 5 25 141 -111 148
-149 4 -17 4 -32 1 -32 -3 0 -27 11 -54 25 -26 13 -70 27 -98 31 -46 6 -49 6
-36 -10 21 -25 8 -29 -21 -6 -29 22 -42 17 -27 -11 12 -23 -3 -25 -21 -4 -15
18 -28 19 -27 3 1 -40 -4 -50 -23 -45 -18 5 -18 3 -4 -19 24 -35 15 -60 -20
-56 -28 4 -29 3 -23 -37 5 -43 1 -44 -37 -12 -18 15 -18 15 -11 -9 4 -14 16
-42 27 -63 10 -21 18 -48 16 -60 -4 -19 -6 -18 -20 13 -9 19 -26 46 -37 60
l-20 25 -9 -25 -10 -25 -12 28 c-16 34 -30 35 -30 2 0 -30 -20 -33 -27 -5 -4
15 -11 19 -24 15 -19 -6 -27 9 -11 19 5 3 9 22 10 42 1 20 4 45 7 54 6 20 16
75 18 103 1 20 13 23 21 5 3 -7 3 11 0 41 -5 41 -3 52 6 46 9 -6 11 2 8 29 -4
37 -4 37 13 15 l17 -23 -2 32 c-2 30 4 36 31 33 7 -1 9 7 6 19 -3 11 0 20 6
20 6 0 11 7 11 15 0 9 14 29 31 46 30 30 32 30 53 12 11 -9 15 -11 9 -3 -20
21 -16 28 13 22 15 -3 24 -1 21 4 -3 5 5 10 18 10 13 1 35 13 49 27 14 14 42
31 63 38 44 14 159 71 188 93 28 22 30 20 30 -20z m-740 7 c-3 -6 -11 -11 -17
-11 -6 0 -6 6 2 15 14 17 26 13 15 -4z m-45 5 c0 -2 -8 -10 -17 -17 -16 -13
-17 -12 -4 4 13 16 21 21 21 13z m-3620 -29 c0 -2 -10 -12 -22 -23 l-23 -19
19 23 c18 21 26 27 26 19z m3774 -12 c-4 -8 -1 -15 5 -15 6 0 8 -7 5 -15 -5
-11 -9 -12 -19 -2 -9 8 -10 18 -4 30 12 21 21 23 13 2z m-1421 -12 c-13 -2
-33 -2 -45 0 -13 2 -3 4 22 4 25 0 35 -2 23 -4z m-106 -9 c-3 -3 -12 -4 -19
-1 -8 3 -5 6 6 6 11 1 17 -2 13 -5z m-2297 -7 c0 -2 -17 -19 -37 -38 l-38 -34
34 38 c33 34 41 42 41 34z m2227 -3 c-3 -3 -12 -4 -19 -1 -8 3 -5 6 6 6 11 1
17 -2 13 -5z m-54 -11 c-7 -2 -19 -2 -25 0 -7 3 -2 5 12 5 14 0 19 -2 13 -5z
m-50 -10 c-7 -2 -19 -2 -25 0 -7 3 -2 5 12 5 14 0 19 -2 13 -5z m-216 -39 c-3
-3 -12 -4 -19 -1 -8 3 -5 6 6 6 11 1 17 -2 13 -5z m1948 -8 c48 7 55 -44 14
-114 -10 -18 -19 -39 -19 -47 0 -8 -5 -17 -12 -21 -7 -5 -8 -3 -3 6 5 9 4 11
-3 6 -7 -4 -12 -16 -12 -27 0 -10 -6 -19 -14 -19 -7 0 -16 -14 -20 -31 -5 -25
-9 -29 -20 -20 -11 9 -15 7 -19 -10 -3 -12 -10 -18 -16 -14 -6 3 -11 0 -12 -7
0 -10 -2 -10 -6 0 -6 15 -52 -25 -54 -48 0 -10 -2 -11 -6 -2 -8 21 -33 13 -33
-10 -1 -23 -1 -23 -16 -3 -15 20 -15 20 -30 1 -8 -11 -14 -24 -14 -29 0 -5 -7
-4 -15 3 -12 10 -15 7 -21 -14 -7 -28 -19 -34 -27 -13 -4 8 -8 8 -14 2 -4 -5
-19 -11 -33 -13 -14 -1 -30 -9 -36 -17 -7 -10 -14 -11 -21 -4 -8 8 -15 4 -26
-11 l-15 -21 -6 26 c-8 31 1 68 15 60 5 -4 9 4 9 17 1 21 1 22 11 4 9 -14 13
-15 19 -5 7 10 11 10 24 0 14 -12 16 -10 16 17 0 50 9 63 33 50 16 -8 22 -8
25 1 2 6 8 9 13 5 5 -3 14 7 19 22 6 15 27 43 47 63 20 20 33 31 29 25 -8 -17
26 -28 36 -12 4 7 8 17 8 21 0 5 4 6 8 3 18 -11 35 12 28 38 -4 15 -11 24 -16
21 -6 -3 -10 5 -10 19 0 26 13 39 42 41 20 2 24 -10 8 -20 -16 -10 -12 -25 5
-19 17 7 20 -9 6 -35 -15 -27 2 -46 27 -32 15 8 21 20 19 40 -1 16 -5 27 -9
24 -12 -7 -9 12 4 25 8 8 8 15 0 25 -10 11 -4 19 25 40 20 15 40 23 43 18 3
-4 14 -7 25 -5z m-2725 -21 c-14 -8 -29 -14 -35 -14 -5 0 1 6 15 14 14 8 30
14 35 14 6 0 -1 -6 -15 -14z m1467 9 c-3 -3 -12 -4 -19 -1 -8 3 -5 6 6 6 11 1
17 -2 13 -5z m-40 -10 c-3 -3 -12 -4 -19 -1 -8 3 -5 6 6 6 11 1 17 -2 13 -5z
m-940 -10 c-3 -3 -12 -4 -19 -1 -8 3 -5 6 6 6 11 1 17 -2 13 -5z m96 -1 c-7
-2 -21 -2 -30 0 -10 3 -4 5 12 5 17 0 24 -2 18 -5z m794 1 c-3 -3 -12 -4 -19
-1 -8 3 -5 6 6 6 11 1 17 -2 13 -5z m-60 -10 c-3 -3 -12 -4 -19 -1 -8 3 -5 6
6 6 11 1 17 -2 13 -5z m-1387 -8 c0 -2 -7 -7 -16 -10 -8 -3 -12 -2 -9 4 6 10
25 14 25 6z m383 -3 c-7 -2 -19 -2 -25 0 -7 3 -2 5 12 5 14 0 19 -2 13 -5z
m915 0 c-10 -2 -26 -2 -35 0 -10 3 -2 5 17 5 19 0 27 -2 18 -5z m1272 -6 c0
-2 -11 -18 -24 -35 -19 -26 -25 -30 -30 -17 -9 24 -7 35 4 35 5 0 7 -8 4 -17
-3 -10 4 -6 16 10 19 24 30 33 30 24z m-2610 -12 c0 -2 -13 -11 -30 -20 -38
-19 -40 -11 -2 9 31 17 32 18 32 11z m559 -8 c-16 -12 -79 -45 -79 -42 0 7 63
45 74 45 5 0 7 -1 5 -3z m1589 -97 c-11 -28 -23 -49 -25 -47 -4 5 34 97 41 97
3 0 -5 -23 -16 -50z m83 2 c-11 -16 -28 -35 -38 -43 -10 -8 -3 5 16 29 37 47
53 58 22 14z m329 -22 c-6 -12 -14 -19 -17 -17 -2 3 1 15 7 27 6 12 14 19 17
17 2 -3 -1 -15 -7 -27z m-39 -17 c-8 -15 -10 -15 -11 -2 0 17 10 32 18 25 2
-3 -1 -13 -7 -23z m-1071 -38 c-7 -9 -27 -25 -44 -36 -25 -17 -24 -14 8 15 41
38 58 47 36 21z m646 -42 c-14 -26 -25 -45 -26 -41 0 12 43 98 48 94 2 -2 -8
-26 -22 -53z m-466 14 c0 -2 -19 -21 -42 -42 l-43 -40 40 43 c36 39 45 47 45
39z m490 -68 c-11 -24 -20 -39 -20 -32 0 15 32 84 37 79 2 -1 -6 -23 -17 -47z
m-740 28 c0 -2 -12 -14 -27 -28 l-28 -24 24 28 c23 25 31 32 31 24z m602 -54
c-15 -27 -41 -86 -59 -133 -35 -92 -45 -98 -14 -9 26 78 83 189 97 189 1 0 -9
-21 -24 -47z m1499 17 c10 0 19 -4 19 -9 0 -10 -58 3 -69 15 -3 4 2 4 12 1 10
-4 27 -7 38 -7z m-1941 -3 c0 -2 -19 -21 -42 -42 l-43 -40 40 43 c36 39 45 47
45 39z m551 -112 c-8 -65 -8 -67 -10 -20 -1 47 8 100 15 93 1 -2 -1 -35 -5
-73z m149 24 c0 -6 -4 -7 -10 -4 -5 3 -10 11 -10 16 0 6 5 7 10 4 6 -3 10 -11
10 -16z m29 0 c-16 -10 -23 -4 -14 10 3 6 11 8 17 5 6 -4 5 -9 -3 -15z m-879
-52 c0 -1 -26 -27 -57 -57 l-58 -55 55 58 c50 53 60 62 60 54z m1075 -75 c-3
-3 -11 0 -18 7 -9 10 -8 11 6 5 10 -3 15 -9 12 -12z m251 -12 c8 0 13 4 10 9
-7 10 69 -5 93 -19 13 -7 10 -9 -11 -10 -15 0 -30 -5 -33 -10 -4 -6 -3 -10 2
-9 4 1 21 -3 36 -9 37 -16 37 -16 38 11 1 21 1 21 9 -3 5 -17 3 -29 -7 -37
-10 -8 -11 -13 -3 -18 9 -6 9 -10 -1 -16 -16 -10 52 -83 93 -100 16 -6 28 -15
28 -20 0 -12 -5 -11 -47 6 -40 17 -78 21 -54 6 10 -7 5 -11 -18 -16 -26 -6
-31 -10 -25 -27 6 -19 3 -20 -31 -14 -20 4 -44 10 -53 13 -36 13 55 -69 101
-91 38 -18 45 -25 32 -30 -10 -3 -23 -2 -29 3 -10 8 -134 61 -144 61 -2 0 8
-14 22 -31 33 -38 35 -65 5 -49 -35 19 -42 5 -14 -28 32 -38 25 -53 -14 -31
-23 13 -29 14 -40 2 -11 -12 -18 -10 -48 13 -35 26 -35 26 -22 3 24 -46 54
-84 114 -148 34 -35 50 -58 37 -51 -34 17 -100 79 -107 99 -3 9 -18 25 -35 34
-29 18 -30 18 -30 -3 0 -18 -3 -19 -21 -10 -17 9 -23 8 -33 -6 -9 -11 -21 -15
-40 -12 -23 5 -26 3 -20 -16 4 -17 1 -15 -20 9 -20 23 -25 26 -26 13 0 -10 -7
-18 -15 -18 -8 0 -15 -7 -15 -15 0 -19 117 -248 158 -308 17 -25 24 -43 16
-40 -22 8 -91 118 -145 229 -50 103 -79 143 -79 109 0 -15 -2 -15 -16 -4 -13
11 -14 9 -9 -17 l7 -29 -22 33 c-26 39 -34 39 -64 7 -29 -31 -34 -31 -38 -2
-3 19 -7 16 -30 -23 l-28 -45 0 38 c0 20 -4 37 -10 37 -5 0 -10 16 -10 35 0
33 -2 35 -20 25 -11 -6 -23 -22 -26 -36 -4 -15 -12 -23 -20 -20 -7 3 -16 -4
-19 -15 -9 -26 -25 -24 -25 4 -1 20 -2 21 -14 4 -15 -20 -46 -13 -46 11 0 55
-49 -114 -60 -207 -7 -64 -7 -65 -9 -16 0 28 3 66 8 85 15 60 22 137 11 120
-8 -12 -10 -10 -9 10 1 14 1 39 0 55 -2 26 -3 27 -11 10 -5 -11 -9 -33 -9 -48
-1 -16 -10 -41 -21 -56 -15 -22 -20 -49 -23 -122 -2 -52 -2 -38 0 31 5 198 8
238 15 234 3 -2 12 12 18 31 13 40 26 45 36 13 7 -22 8 -22 20 7 18 41 17 19
-2 -55 -9 -36 -12 -66 -7 -71 5 -5 16 29 27 79 21 104 39 141 34 70 -4 -56 1
-53 24 15 9 29 17 46 17 39 1 -8 7 -12 14 -10 14 5 18 88 5 88 -5 0 -7 4 -4 9
3 5 -1 14 -9 21 -11 9 -14 4 -18 -32 l-4 -43 -1 47 c-1 26 -7 50 -13 53 -6 4
-10 1 -8 -6 4 -30 -1 -59 -10 -59 -6 0 -11 17 -13 38 l-3 37 -18 -39 c-9 -22
-20 -36 -24 -32 -4 3 -1 12 5 18 21 21 13 32 -10 12 -13 -10 -18 -12 -12 -4
14 19 24 71 13 64 -5 -3 -9 -14 -9 -24 0 -10 -4 -22 -10 -25 -5 -3 -10 -17
-10 -30 0 -14 -9 -29 -21 -35 -19 -11 -20 -9 -16 17 3 15 8 42 12 58 5 21 4
27 -3 20 -5 -5 -12 -19 -14 -30 -2 -11 -9 -20 -15 -20 -7 0 -17 -5 -23 -11 -8
-8 -6 -11 4 -11 8 0 12 5 9 10 -3 6 -1 7 5 3 9 -5 9 -13 2 -27 -6 -11 -15 -17
-20 -14 -5 3 -11 1 -14 -4 -4 -5 7 -7 25 -4 39 6 37 -2 -21 -87 -41 -61 -48
-76 -28 -64 7 4 8 3 4 -5 -4 -6 -11 -9 -16 -6 -5 3 -16 -8 -25 -25 -8 -16 -18
-30 -21 -30 -3 0 10 29 30 65 19 35 32 67 27 69 -4 3 -8 -1 -8 -8 0 -18 -47
-79 -51 -67 -2 6 4 25 13 43 l16 33 -36 -35 c-19 -18 -35 -30 -35 -24 -1 5 -7
-2 -15 -16 -13 -23 -14 -24 -15 -4 0 21 32 59 42 48 3 -3 9 0 14 7 4 8 3 10
-4 5 -18 -11 -14 9 3 24 9 7 13 15 10 18 -3 3 0 11 7 19 6 7 9 16 6 18 -5 6
-91 -123 -94 -141 -1 -6 -17 -38 -36 -71 -19 -32 -50 -95 -68 -140 -19 -46
-36 -81 -38 -78 -2 2 8 34 23 71 15 36 28 76 31 87 2 11 7 23 11 26 5 3 9 15
11 26 5 38 8 44 38 82 41 52 83 116 56 86 -21 -24 -38 -31 -26 -11 4 7 3 8 -4
4 -7 -4 -12 -2 -12 5 0 8 -4 8 -15 -1 -8 -7 -15 -9 -15 -4 0 4 -12 -3 -26 -17
-17 -16 -25 -19 -23 -9 1 8 -1 23 -6 33 -7 17 -9 17 -31 -4 -13 -12 -27 -20
-30 -16 -3 3 13 22 35 42 54 49 53 67 -1 21 -23 -20 -46 -36 -52 -36 -6 1 0
10 14 21 14 11 37 31 52 45 27 24 44 32 33 14 -3 -5 -1 -10 6 -10 7 0 3 -10
-9 -23 -12 -13 -22 -27 -22 -31 0 -5 26 17 58 49 64 64 99 88 89 61 -9 -23 0
-20 14 5 9 17 8 20 -2 14 -7 -5 -10 -4 -6 3 4 5 15 8 25 6 20 -5 34 6 80 59
45 53 40 37 -8 -24 -22 -28 -40 -57 -40 -65 0 -22 10 -17 20 11 5 14 15 25 21
25 8 0 8 -4 -1 -15 -7 -9 -11 -18 -8 -20 2 -3 15 9 28 27 12 17 18 28 11 24
-6 -4 -11 -1 -11 8 0 8 6 19 14 23 7 4 16 18 20 30 6 18 4 21 -14 18 -11 -2
-26 -7 -33 -12 -6 -4 -4 6 7 21 11 18 13 25 5 21 -9 -5 -8 -1 2 11 9 10 15 26
13 34 -2 8 2 2 10 -15 8 -16 17 -29 20 -27 14 5 27 1 22 -7 -3 -5 3 -11 14
-14 14 -4 22 2 30 22 9 23 10 22 5 -14 -3 -22 -7 -51 -10 -65 -5 -22 -3 -21 9
5 9 17 15 24 16 17 0 -21 20 -3 20 18 0 10 4 21 9 25 6 3 6 -7 0 -27 -11 -39
-11 -38 -1 -37 20 3 32 -2 32 -16 0 -17 16 -20 26 -4 4 7 13 1 24 -16 10 -15
20 -25 22 -23 7 5 38 -23 38 -34 0 -5 -4 -7 -8 -4 -5 3 -8 -8 -7 -24 2 -33 15
-55 15 -25 0 14 3 15 14 6 11 -9 12 -6 8 15 -4 21 -2 25 9 18 19 -11 59 -13
59 -2 0 4 9 8 19 8 22 0 37 33 25 52 -5 9 -2 8 10 -1 15 -13 17 -12 12 12 -2
15 -8 32 -12 38 -5 8 -3 9 6 4 9 -6 10 -2 5 16 -7 22 -7 23 11 9 17 -13 17
-12 -1 9 l-20 23 25 -4 c17 -2 33 4 48 20 21 23 24 23 47 8 24 -16 25 -16 13
9 -6 14 -15 25 -19 25 -4 0 -10 8 -13 18 -3 9 12 -3 34 -27 33 -36 43 -42 53
-31 8 8 8 11 1 7 -16 -9 -39 19 -24 28 6 4 23 -4 38 -16 21 -19 23 -19 9 -3
-22 26 -22 35 0 27 10 -4 2 7 -17 25 l-35 31 38 -1 c26 -1 41 -7 48 -20 5 -10
15 -18 22 -18 7 0 18 -9 24 -20 11 -16 10 -18 -2 -14 -30 12 -14 -13 25 -36
22 -14 40 -28 40 -32 0 -3 9 -4 20 -1 14 4 19 11 15 23 -4 13 4 25 25 40 16
12 30 30 30 41 0 10 5 19 11 19 8 0 7 5 -1 15 -11 14 -10 14 14 5 15 -5 34
-10 42 -10z m-1151 -40 c-3 -6 -21 -17 -38 -26 -36 -19 -31 -9 10 17 34 21 36
22 28 9z m427 3 c-10 -4 -9 -9 5 -19 17 -13 17 -14 -1 -7 -14 5 -18 3 -14 -8
3 -8 0 -20 -7 -26 -10 -10 -14 -9 -19 3 -3 9 -1 12 4 9 6 -3 10 5 10 18 0 26
8 37 24 36 6 0 5 -3 -2 -6z m-419 -44 c-36 -23 -43 -33 -15 -25 9 3 24 1 32
-4 13 -9 13 -10 0 -11 -8 -1 -19 -1 -23 0 -4 1 -17 -4 -28 -10 -15 -8 -17 -14
-10 -23 8 -9 7 -13 -4 -13 -7 0 -13 5 -12 11 1 6 -9 11 -23 10 -23 -1 -23 0
-6 10 11 6 27 18 36 27 26 24 63 49 75 49 5 0 -5 -10 -22 -21z m1448 -14 c1
-16 -16 -16 -36 0 -19 15 -19 15 8 13 15 -2 28 -7 28 -13z m-1648 -22 c-3 -10
-11 -24 -16 -31 -8 -10 -7 -16 2 -21 8 -5 0 -17 -26 -36 -29 -22 -34 -24 -19
-6 22 25 33 67 14 55 -7 -4 -8 -3 -4 5 4 6 12 9 17 6 5 -4 13 5 19 19 11 29
23 36 13 9z m-258 -22 c-8 -17 -19 -33 -25 -36 -5 -3 -1 10 11 29 25 43 36 48
14 7z m515 19 c0 -5 -5 -10 -11 -10 -5 0 -7 5 -4 10 3 6 8 10 11 10 2 0 4 -4
4 -10z m65 0 c-27 -12 -43 -12 -25 0 8 5 22 9 30 9 10 0 8 -3 -5 -9z m279 -15
c-4 -8 -8 -15 -10 -15 -2 0 -4 7 -4 15 0 8 4 15 10 15 5 0 7 -7 4 -15z m-401
-27 c-18 -21 -8 -24 17 -5 9 6 7 3 -5 -9 -30 -31 -48 -64 -33 -64 6 0 8 -3 4
-7 -4 -5 -9 -7 -12 -6 -2 2 -41 -21 -86 -50 -115 -74 -121 -76 -58 -18 30 28
49 51 42 51 -7 0 -11 4 -7 10 3 5 12 7 19 4 7 -3 19 3 26 13 12 15 12 16 0 6
-29 -26 -33 -12 -4 18 36 39 9 26 -41 -19 -38 -36 -61 -37 -30 -2 29 32 87 65
115 65 14 0 26 6 26 13 2 18 2 18 24 18 18 0 18 -2 3 -18z m-114 9 c-2 -1 -13
-9 -24 -17 -19 -14 -19 -14 -6 3 7 9 18 17 24 17 6 0 8 -1 6 -3z m237 -27 c0
-11 -4 -20 -8 -20 -4 0 -8 5 -8 11 0 5 -6 7 -12 4 -7 -4 -4 1 6 9 11 9 20 16
21 16 0 0 1 -9 1 -20z m271 -2 c-3 -8 -6 -5 -6 6 -1 11 2 17 5 13 3 -3 4 -12
1 -19z m-617 -48 c-25 -22 -48 -39 -52 -40 -16 0 -7 20 12 30 11 6 31 22 46
35 15 14 30 23 33 20 3 -3 -15 -23 -39 -45z m60 28 c0 -7 -15 -21 -33 -31
l-32 -18 30 30 c35 35 35 35 35 19z m194 -10 l-6 -23 26 24 c33 31 34 19 1
-17 -14 -15 -25 -23 -25 -18 0 5 -11 -1 -25 -14 -13 -12 -22 -26 -20 -30 3 -5
-2 -10 -10 -14 -8 -3 -16 -1 -16 4 -4 25 -3 30 6 31 16 1 35 20 30 29 -3 5 -1
11 5 15 6 4 7 11 4 17 -4 7 -2 8 4 4 7 -4 12 -2 12 3 0 6 5 11 11 11 6 0 8 -9
3 -22z m3185 -18 c16 0 161 -138 161 -154 0 -7 14 -25 30 -41 17 -16 30 -23
30 -17 0 27 20 10 29 -25 19 -68 15 -79 -36 -101 -27 -11 -64 -22 -84 -26 -26
-5 -50 -20 -80 -52 -54 -55 -71 -66 -129 -75 -101 -15 -229 21 -289 83 -27 27
-29 35 -25 82 2 28 8 52 14 54 5 2 10 14 10 26 0 14 9 27 24 34 17 7 25 22 30
53 8 50 59 123 96 139 14 5 50 10 80 9 30 0 66 4 80 9 14 6 31 9 38 6 8 -2 17
-4 21 -4z m-3529 -3 c0 -2 -10 -12 -22 -23 -14 -12 -18 -13 -10 -3 6 9 9 19 5
22 -3 4 1 7 10 7 10 0 17 -2 17 -3z m121 -61 c-6 -7 -9 -15 -6 -18 3 -3 -5
-13 -17 -24 -12 -10 -18 -14 -15 -7 4 6 2 13 -4 15 -6 2 -1 16 12 32 l23 29
-30 -18 -29 -18 30 26 c25 21 31 23 38 11 5 -9 4 -21 -2 -28z m49 16 c0 -4 -9
-13 -20 -20 -22 -13 -27 -3 -8 16 14 14 28 16 28 4z m-130 -6 c0 -3 -4 -8 -10
-11 -5 -3 -10 -1 -10 4 0 6 5 11 10 11 6 0 10 -2 10 -4z m538 -89 c-44 -112
-51 -126 -65 -131 -11 -4 -9 3 6 28 25 40 27 53 5 35 -15 -12 -15 -10 0 25 9
21 16 41 16 44 0 3 3 3 6 0 3 -4 1 -17 -6 -30 -11 -22 -11 -22 5 -3 9 11 18
31 21 45 10 44 14 51 23 46 5 -4 0 -29 -11 -59z m-254 -44 c4 -10 4 -14 0 -10
-4 4 -14 1 -22 -6 -13 -10 -14 -9 -3 11 14 27 17 27 25 5z m169 -78 c-3 -9 -8
-14 -10 -11 -3 3 -2 9 2 15 9 16 15 13 8 -4z m27 -31 c0 -8 -19 -13 -24 -6 -3
5 1 9 9 9 8 0 15 -2 15 -3z m-387 -362 c-15 -45 -30 -82 -35 -82 -4 0 1 21 11
48 10 26 24 64 31 85 6 21 14 37 16 34 2 -2 -8 -40 -23 -85z m-35 -117 c-3 -3
-9 2 -12 12 -6 14 -5 15 5 6 7 -7 10 -15 7 -18z m-11 -37 c-3 -8 -6 -5 -6 6
-1 11 2 17 5 13 3 -3 4 -12 1 -19z m-10 -40 c-3 -8 -6 -5 -6 6 -1 11 2 17 5
13 3 -3 4 -12 1 -19z m-605 -190 c27 -40 29 -49 17 -83 -7 -19 -17 -35 -21
-35 -4 0 -8 -13 -8 -29 0 -47 -42 -76 -77 -53 -22 14 -34 60 -19 75 12 11 11
20 0 53 -16 46 -10 91 14 96 26 6 84 -9 94 -24z"/>
<path d="M5723 4394 c-12 -26 -12 -26 7 -9 11 10 17 22 14 26 -7 12 -7 12 -21
-17z"/>
<path d="M7016 3897 c3 -10 9 -15 12 -12 3 3 0 11 -7 18 -10 9 -11 8 -5 -6z"/>
<path d="M6960 3893 c1 -11 39 -80 40 -72 0 11 -30 79 -35 79 -3 0 -5 -3 -5
-7z"/>
<path d="M7000 3861 c0 -5 5 -13 10 -16 6 -3 10 -2 10 4 0 5 -4 13 -10 16 -5
3 -10 2 -10 -4z"/>
<path d="M6941 3804 c-1 -12 6 -28 16 -35 15 -13 15 -12 6 6 -6 11 -13 27 -16
35 -4 10 -6 8 -6 -6z"/>
<path d="M7015 3790 c3 -5 8 -10 11 -10 2 0 4 5 4 10 0 6 -5 10 -11 10 -5 0
-7 -4 -4 -10z"/>
<path d="M7050 3761 c10 -21 30 -37 30 -26 0 14 -21 45 -31 45 -6 0 -6 -7 1
-19z"/>
<path d="M7065 3611 c-3 -5 -2 -12 3 -15 5 -3 9 1 9 9 0 17 -3 19 -12 6z"/>
<path d="M7070 3449 c0 -17 45 -61 54 -52 10 10 7 25 -3 19 -5 -4 -19 6 -30
21 -14 19 -20 23 -21 12z"/>
<path d="M7013 3370 c-8 -18 -7 -29 1 -39 9 -12 12 -11 14 7 2 12 2 30 -1 40
-3 14 -6 12 -14 -8z"/>
<path d="M7060 3355 c13 -14 27 -25 32 -25 15 0 -26 49 -41 50 -10 0 -7 -8 9
-25z"/>
<path d="M7036 3284 c-10 -25 -7 -30 22 -43 22 -10 25 -10 15 0 -7 7 -13 21
-13 30 0 24 -16 33 -24 13z"/>
<path d="M7007 3250 c9 -52 22 -72 23 -34 0 16 -7 39 -15 50 -14 18 -14 16 -8
-16z"/>
<path d="M7110 3226 c0 -2 8 -10 18 -17 15 -13 16 -12 3 4 -13 16 -21 21 -21
13z"/>
<path d="M7090 3200 c0 -5 5 -10 10 -10 6 0 10 5 10 10 0 6 -4 10 -10 10 -5 0
-10 -4 -10 -10z"/>
<path d="M7044 3153 c-5 -18 -2 -30 10 -38 9 -7 16 -17 16 -24 0 -6 5 -20 10
-31 6 -11 14 -29 20 -40 5 -10 7 -26 4 -35 -4 -8 -1 -15 6 -15 8 0 11 10 7 30
-4 16 -2 32 4 36 6 4 4 10 -5 17 -16 13 -69 107 -60 107 3 0 14 -5 25 -10 23
-13 25 -7 3 14 -22 23 -33 20 -40 -11z"/>
<path d="M7135 3130 c-3 -5 1 -10 9 -10 9 0 16 5 16 10 0 6 -4 10 -9 10 -6 0
-13 -4 -16 -10z"/>
<path d="M7047 3047 c-4 -10 -2 -28 4 -39 15 -28 19 -19 10 22 -5 28 -8 31
-14 17z"/>
<path d="M7142 3000 c7 -10 14 -18 15 -16 6 6 -9 36 -18 36 -5 0 -4 -9 3 -20z"/>
<path d="M7187 3003 c-4 -3 -7 -15 -7 -26 0 -25 13 -14 17 13 3 21 1 24 -10
13z"/>
<path d="M7032 2963 c2 -9 10 -19 18 -21 12 -4 13 -3 3 10 -7 8 -10 18 -6 21
3 4 1 7 -6 7 -7 0 -11 -8 -9 -17z"/>
<path d="M7210 2952 c0 -12 19 -26 26 -19 2 2 -2 10 -11 17 -9 8 -15 8 -15 2z"/>
<path d="M7075 2940 c3 -5 10 -10 16 -10 5 0 9 5 9 10 0 6 -7 10 -16 10 -8 0
-12 -4 -9 -10z"/>
<path d="M7182 2931 c4 -13 18 -16 19 -4 0 4 -5 9 -11 12 -7 2 -11 -2 -8 -8z"/>
<path d="M6935 2900 c3 -5 8 -10 11 -10 2 0 4 5 4 10 0 6 -5 10 -11 10 -5 0
-7 -4 -4 -10z"/>
<path d="M7048 2894 c-6 -10 20 -79 28 -72 2 3 -2 22 -9 43 -8 21 -16 34 -19
29z"/>
<path d="M2245 3250 c-3 -6 1 -7 9 -4 18 7 21 14 7 14 -6 0 -13 -4 -16 -10z"/>
<path d="M6734 2197 c-6 -7 -21 -19 -33 -27 -11 -8 -21 -20 -21 -27 0 -24 21
-24 52 2 17 14 37 24 44 21 21 -8 17 4 -8 25 -11 11 -21 19 -22 19 -1 -1 -6
-6 -12 -13z"/>
<path d="M6596 2034 c-20 -20 -20 -30 0 -38 26 -10 32 -7 32 19 0 32 -12 39
-32 19z"/>
<path d="M6645 1990 c3 -5 8 -10 11 -10 2 0 4 5 4 10 0 6 -5 10 -11 10 -5 0
-7 -4 -4 -10z"/>
<path d="M6697 1949 c7 -25 22 -35 61 -42 39 -8 42 6 5 30 -16 10 -30 20 -33
23 -3 3 -12 6 -21 6 -11 1 -15 -5 -12 -17z"/>
<path d="M5872 1780 c0 -14 2 -19 5 -12 2 6 2 18 0 25 -3 6 -5 1 -5 -13z"/>
<path d="M5990 1541 c12 -23 29 -35 37 -27 4 3 -4 15 -17 26 -29 25 -33 25
-20 1z"/>
<path d="M6062 1488 c3 -14 77 -68 92 -68 5 0 0 10 -12 23 -12 13 -19 27 -15
32 5 4 2 5 -5 1 -7 -4 -24 0 -38 8 -17 12 -23 13 -22 4z"/>
<path d="M6085 1421 c3 -15 -1 -18 -13 -14 -15 5 -15 4 1 -13 9 -10 31 -19 47
-20 27 -2 29 0 18 20 -11 21 -37 45 -50 46 -4 0 -5 -9 -3 -19z"/>
<path d="M5249 1333 c-13 -16 -12 -17 4 -4 16 13 21 21 13 21 -2 0 -10 -8 -17
-17z"/>
<path d="M5100 1260 c0 -5 -7 -7 -15 -4 -8 4 -15 4 -15 1 0 -13 30 -14 40 -1
9 10 9 14 1 14 -6 0 -11 -4 -11 -10z"/>
<path d="M5046 1228 c3 -5 10 -6 15 -3 13 9 11 12 -6 12 -8 0 -12 -4 -9 -9z"/>
<path d="M5551 1228 c0 -9 -4 -25 -7 -35 -5 -14 -4 -15 5 -7 7 7 11 22 8 35
-2 13 -5 16 -6 7z"/>
<path d="M5106 1133 c-8 -9 -36 -72 -36 -82 0 -3 12 14 25 38 24 41 29 61 11
44z"/>
<path d="M5751 1104 c0 -11 3 -14 6 -6 3 7 2 16 -1 19 -3 4 -6 -2 -5 -13z"/>
<path d="M4890 1299 c0 -5 5 -7 10 -4 6 3 10 8 10 11 0 2 -4 4 -10 4 -5 0 -10
-5 -10 -11z"/>
<path d="M4129 1753 c-13 -16 -12 -17 4 -4 16 13 21 21 13 21 -2 0 -10 -8 -17
-17z"/>
<path d="M3862 1405 c-45 -48 -51 -58 -46 -85 5 -20 2 -36 -9 -48 -8 -9 -26
-42 -40 -72 -20 -42 -25 -65 -20 -97 3 -25 -1 -63 -10 -95 -31 -104 -28 -168
9 -182 18 -7 113 27 162 58 40 25 138 121 154 151 5 8 0 35 -11 63 -11 27 -27
105 -36 173 -17 121 -25 151 -51 176 -24 24 -50 13 -102 -42z"/>
<path d="M3336 551 c-11 -17 6 -41 29 -41 30 0 41 16 25 35 -14 17 -46 20 -54
6z"/>
<path d="M3205 164 c-22 -14 -50 -29 -62 -34 -13 -5 -23 -16 -23 -24 0 -8 -15
-24 -32 -35 -18 -12 -48 -32 -67 -46 l-34 -25 232 0 c216 0 232 1 228 18 -3 9
-8 38 -12 63 -13 100 -134 143 -230 83z"/>
</g>
</svg>
